<?xml version="1.0" encoding="UTF-8"?><svg xmlns="http://www.w3.org/2000/svg" viewBox="0 0 16.97 16.97"><g id="a"/><g id="b"><g id="c"><g><path d="M12.32,0H4.65C2.09,0,0,2.09,0,4.65v7.67c0,2.57,2.09,4.65,4.65,4.65h7.67c2.57,0,4.65-2.09,4.65-4.65V4.65c0-2.57-2.09-4.65-4.65-4.65Zm3.65,12.32c0,2.01-1.64,3.65-3.65,3.65H4.65c-2.01,0-3.65-1.64-3.65-3.65V4.65c0-2.01,1.64-3.65,3.65-3.65h7.67c2.01,0,3.65,1.64,3.65,3.65v7.67Z"/><path d="M8.49,3.83c-2.57,0-4.66,2.09-4.66,4.66s2.09,4.66,4.66,4.66,4.66-2.09,4.66-4.66-2.09-4.66-4.66-4.66Zm0,8.31c-2.01,0-3.65-1.64-3.65-3.65s1.64-3.65,3.65-3.65,3.65,1.64,3.65,3.65-1.64,3.65-3.65,3.65Z"/><path d="M13.42,2.14c-.78,0-1.41,.63-1.41,1.41s.63,1.41,1.41,1.41,1.41-.63,1.41-1.41-.63-1.41-1.41-1.41Zm0,1.83c-.23,0-.41-.18-.41-.41s.18-.41,.41-.41,.41,.18,.41,.41-.18,.41-.41,.41Z"/></g></g></g></svg>