<svg xmlns="http://www.w3.org/2000/svg" viewBox="0 0 34.77 34.77"><defs><style>.cls-1{fill:#fff;}.cls-2{fill:#040000;}</style></defs><g id="レイヤー_2" data-name="レイヤー 2"><g id="レイアウト"><circle class="cls-1" cx="17.37" cy="17.24" r="15.23"/><path class="cls-2" d="M17.39,34.77A17.39,17.39,0,1,1,34.77,17.39,17.41,17.41,0,0,1,17.39,34.77Zm5.86-24.44a1.29,1.29,0,1,0,1.29,1.29A1.29,1.29,0,0,0,23.25,10.33ZM17.53,12a5.41,5.41,0,1,0,5.4,5.41A5.41,5.41,0,0,0,17.53,12Zm0,8.87A3.46,3.46,0,1,1,21,17.39,3.46,3.46,0,0,1,17.53,20.85Zm10.91-8a6.6,6.6,0,0,0-6.6-6.6h-8.7a6.59,6.59,0,0,0-6.59,6.6v8.7a6.59,6.59,0,0,0,6.59,6.59h8.7a6.6,6.6,0,0,0,6.6-6.59Zm-2.07,8.7a4.52,4.52,0,0,1-4.53,4.52h-8.7A4.52,4.52,0,0,1,8.62,21.6V12.9a4.52,4.52,0,0,1,4.52-4.53h8.7a4.53,4.53,0,0,1,4.53,4.53Z"/></g></g></svg>